<svg width="140" height="140" viewBox="0 0 140 140" fill="none" xmlns="http://www.w3.org/2000/svg">
<circle cx="70" cy="70" r="70" fill="url(#paint0_linear_54_22)"/>
<path d="M42.7001 81L60.2841 46.112L62.4681 49.136H39.7321V41.968H67.9561V47.512L51.2681 81H42.7001ZM93.132 41.968L83.556 56.304L82.604 55.072C83.2013 54.9227 83.78 54.792 84.34 54.68C84.9 54.568 85.4787 54.512 86.076 54.512C88.6147 54.512 90.892 55.1093 92.908 56.304C94.9613 57.4613 96.5667 59.048 97.724 61.064C98.9187 63.0427 99.516 65.2827 99.516 67.784C99.516 70.5093 98.844 72.9173 97.5 75.008C96.1933 77.0613 94.4387 78.6667 92.236 79.824C90.0707 80.9813 87.6627 81.56 85.012 81.56C82.3613 81.56 79.916 80.9813 77.676 79.824C75.4733 78.6667 73.7 77.0613 72.356 75.008C71.0493 72.9173 70.396 70.528 70.396 67.84C70.396 66.5707 70.5827 65.3013 70.956 64.032C71.3667 62.7627 71.9267 61.568 72.636 60.448L84.228 41.968H93.132ZM85.012 61.344C83.78 61.344 82.6413 61.6053 81.596 62.128C80.588 62.6507 79.7853 63.3973 79.188 64.368C78.5907 65.3013 78.292 66.44 78.292 67.784C78.292 69.128 78.5907 70.2853 79.188 71.256C79.7853 72.1893 80.588 72.9173 81.596 73.44C82.604 73.9627 83.7427 74.224 85.012 74.224C86.244 74.224 87.364 73.9627 88.372 73.44C89.38 72.9173 90.1827 72.1893 90.78 71.256C91.3773 70.2853 91.676 69.128 91.676 67.784C91.676 66.44 91.3773 65.3013 90.78 64.368C90.1827 63.3973 89.38 62.6507 88.372 62.128C87.364 61.6053 86.244 61.344 85.012 61.344Z" fill="white"/>
<path opacity="0.516811" d="M51.592 113.16C50.824 113.16 50.1413 112.984 49.544 112.632C48.9467 112.28 48.472 111.795 48.12 111.176C47.7787 110.547 47.608 109.837 47.608 109.048C47.608 108.248 47.7787 107.544 48.12 106.936C48.4613 106.317 48.9307 105.832 49.528 105.48C50.136 105.128 50.824 104.952 51.592 104.952C52.3493 104.952 53.0267 105.128 53.624 105.48C54.2213 105.832 54.6907 106.317 55.032 106.936C55.3733 107.544 55.544 108.248 55.544 109.048C55.544 109.837 55.3733 110.541 55.032 111.16C54.6907 111.779 54.2213 112.269 53.624 112.632C53.0267 112.984 52.3493 113.16 51.592 113.16ZM51.592 111.416C51.9973 111.416 52.344 111.32 52.632 111.128C52.9307 110.936 53.1547 110.664 53.304 110.312C53.464 109.96 53.544 109.539 53.544 109.048C53.544 108.547 53.464 108.125 53.304 107.784C53.1547 107.432 52.9307 107.165 52.632 106.984C52.344 106.792 51.9973 106.696 51.592 106.696C51.176 106.696 50.8187 106.792 50.52 106.984C50.2213 107.165 49.992 107.432 49.832 107.784C49.672 108.125 49.592 108.547 49.592 109.048C49.592 109.539 49.672 109.96 49.832 110.312C49.992 110.664 50.2213 110.936 50.52 111.128C50.8187 111.32 51.176 111.416 51.592 111.416ZM57.6778 113V106.664H56.2538V105.112H57.6938V104.28C57.6938 103.597 57.8058 103.069 58.0298 102.696C58.2538 102.323 58.5524 102.061 58.9258 101.912C59.3098 101.763 59.7204 101.688 60.1578 101.688C60.4884 101.688 60.7711 101.72 61.0058 101.784C61.2511 101.837 61.4858 101.917 61.7098 102.024L61.0698 103.544C60.9631 103.491 60.8511 103.448 60.7338 103.416C60.6164 103.373 60.4991 103.352 60.3818 103.352C60.1258 103.352 59.9444 103.437 59.8378 103.608C59.7311 103.779 59.6778 104.008 59.6778 104.296V105.112H61.3578V106.664H59.6778V113H57.6778ZM70.1485 113V104.184L70.7245 105.16H67.3005V103.592H69.0285C69.3912 103.592 69.6685 103.512 69.8605 103.352C70.0525 103.181 70.1485 102.893 70.1485 102.488V101.848H72.1485V113H70.1485ZM79.2616 113.144C78.5683 113.144 77.987 113.021 77.5176 112.776C77.0483 112.531 76.6696 112.205 76.3816 111.8C76.0936 111.384 75.875 110.925 75.7256 110.424C75.587 109.923 75.491 109.405 75.4376 108.872C75.3843 108.339 75.3576 107.837 75.3576 107.368C75.3576 106.909 75.379 106.424 75.4216 105.912C75.475 105.389 75.571 104.877 75.7096 104.376C75.859 103.875 76.0776 103.421 76.3656 103.016C76.6536 102.611 77.027 102.285 77.4856 102.04C77.955 101.795 78.5416 101.672 79.2456 101.672C79.939 101.672 80.515 101.795 80.9736 102.04C81.443 102.275 81.8216 102.595 82.1096 103C82.3976 103.405 82.611 103.859 82.7496 104.36C82.899 104.861 83.0003 105.373 83.0536 105.896C83.107 106.408 83.1336 106.899 83.1336 107.368C83.1336 107.859 83.107 108.371 83.0536 108.904C83.0003 109.437 82.899 109.955 82.7496 110.456C82.6003 110.957 82.3816 111.411 82.0936 111.816C81.8056 112.221 81.4323 112.547 80.9736 112.792C80.515 113.027 79.9443 113.144 79.2616 113.144ZM79.2616 111.24C79.763 111.24 80.147 111.069 80.4136 110.728C80.6803 110.376 80.8616 109.912 80.9576 109.336C81.0536 108.76 81.1016 108.125 81.1016 107.432C81.1016 106.717 81.0483 106.072 80.9416 105.496C80.8456 104.909 80.6643 104.445 80.3976 104.104C80.131 103.763 79.747 103.592 79.2456 103.592C78.851 103.592 78.531 103.693 78.2856 103.896C78.0403 104.099 77.8536 104.376 77.7256 104.728C77.6083 105.08 77.523 105.491 77.4696 105.96C77.427 106.419 77.4056 106.909 77.4056 107.432C77.4056 107.933 77.427 108.413 77.4696 108.872C77.523 109.331 77.6136 109.736 77.7416 110.088C77.8696 110.44 78.0563 110.723 78.3016 110.936C78.547 111.139 78.867 111.24 79.2616 111.24ZM88.2148 113.144C87.5214 113.144 86.9401 113.021 86.4708 112.776C86.0014 112.531 85.6228 112.205 85.3348 111.8C85.0468 111.384 84.8281 110.925 84.6788 110.424C84.5401 109.923 84.4441 109.405 84.3908 108.872C84.3374 108.339 84.3108 107.837 84.3108 107.368C84.3108 106.909 84.3321 106.424 84.3748 105.912C84.4281 105.389 84.5241 104.877 84.6628 104.376C84.8121 103.875 85.0308 103.421 85.3188 103.016C85.6068 102.611 85.9801 102.285 86.4388 102.04C86.9081 101.795 87.4948 101.672 88.1988 101.672C88.8921 101.672 89.4681 101.795 89.9268 102.04C90.3961 102.275 90.7748 102.595 91.0628 103C91.3508 103.405 91.5641 103.859 91.7028 104.36C91.8521 104.861 91.9534 105.373 92.0068 105.896C92.0601 106.408 92.0868 106.899 92.0868 107.368C92.0868 107.859 92.0601 108.371 92.0068 108.904C91.9534 109.437 91.8521 109.955 91.7028 110.456C91.5534 110.957 91.3348 111.411 91.0468 111.816C90.7588 112.221 90.3854 112.547 89.9268 112.792C89.4681 113.027 88.8974 113.144 88.2148 113.144ZM88.2148 111.24C88.7161 111.24 89.1001 111.069 89.3668 110.728C89.6334 110.376 89.8148 109.912 89.9108 109.336C90.0068 108.76 90.0548 108.125 90.0548 107.432C90.0548 106.717 90.0014 106.072 89.8948 105.496C89.7988 104.909 89.6174 104.445 89.3508 104.104C89.0841 103.763 88.7001 103.592 88.1988 103.592C87.8041 103.592 87.4841 103.693 87.2388 103.896C86.9934 104.099 86.8068 104.376 86.6788 104.728C86.5614 105.08 86.4761 105.491 86.4228 105.96C86.3801 106.419 86.3588 106.909 86.3588 107.432C86.3588 107.933 86.3801 108.413 86.4228 108.872C86.4761 109.331 86.5668 109.736 86.6948 110.088C86.8228 110.44 87.0094 110.723 87.2548 110.936C87.5001 111.139 87.8201 111.24 88.2148 111.24Z" fill="#CAC9FF"/>
<defs>
<linearGradient id="paint0_linear_54_22" x1="70" y1="0" x2="70" y2="140" gradientUnits="userSpaceOnUse">
<stop stop-color="#4D21C9"/>
<stop offset="1" stop-color="#2521C9" stop-opacity="0"/>
<stop offset="1" stop-color="#2521C9" stop-opacity="0"/>
</linearGradient>
</defs>
</svg>
